<svg xmlns="http://www.w3.org/2000/svg" width="24" height="24" viewBox="0 0 24 24" fill="none" stroke="currentColor" stroke-width="2" stroke-linecap="round" stroke-linejoin="round">
  <path d="M12 5a3 3 0 1 0-5.9-1.4"/>
  <path d="M15 13a3 3 0 1 0-5.9-1.4"/>
  <path d="M9 13a3 3 0 1 0-5.9-1.4"/>
  <path d="M12 21a3 3 0 1 0-5.9-1.4"/>
  <path d="M18 11a3 3 0 1 0-5.9-1.4"/>
  <path d="M21 7a3 3 0 1 0-5.9-1.4"/>
  <path d="M3.5 14.5a3 3 0 1 0-2.5 2.3"/>
  <path d="m14.5 4.5 1-1"/>
  <path d="m9.5 4.5 1-1"/>
  <path d="m15.5 11.5 1-1"/>
  <path d="m6.5 11.5 1-1"/>
  <path d="m12.5 19.5 1-1"/>
  <path d="m3.5 19.5 1-1"/>
  <path d="M12 8V5"/>
  <path d="M15 13v-2"/>
  <path d="M9 13v-2"/>
  <path d="M12 21v-6"/>
  <path d="M18 11V9"/>
  <path d="M21 7V5"/>
</svg>
